<?xml version="1.0" encoding="UTF-8"?>
<svg width="32px" height="32px" viewBox="0 0 32 32" version="1.1" xmlns="http://www.w3.org/2000/svg">
    <title>Augment Icon</title>
    <g id="Augment-Icon" stroke="none" stroke-width="1" fill="none" fill-rule="evenodd">
        <circle id="Background" fill="#6366F1" cx="16" cy="16" r="16"></circle>
        <g id="Logo" transform="translate(4.000000, 4.000000)" fill="#FFFFFF">
            <path d="M12,0 C18.627417,0 24,5.372583 24,12 C24,18.627417 18.627417,24 12,24 C5.372583,24 0,18.627417 0,12 C0,5.372583 5.372583,0 12,0 Z M12,2 C6.4771525,2 2,6.4771525 2,12 C2,17.5228475 6.4771525,22 12,22 C17.5228475,22 22,17.5228475 22,12 C22,6.4771525 17.5228475,2 12,2 Z" id="Circle" fill-rule="nonzero"></path>
            <path d="M12,5 C15.8659932,5 19,8.13400675 19,12 C19,15.8659932 15.8659932,19 12,19 C8.13400675,19 5,15.8659932 5,12 C5,8.13400675 8.13400675,5 12,5 Z M12,7 C9.23857625,7 7,9.23857625 7,12 C7,14.7614237 9.23857625,17 12,17 C14.7614237,17 17,14.7614237 17,12 C17,9.23857625 14.7614237,7 12,7 Z" id="Inner-Circle" fill-rule="nonzero"></path>
            <circle id="Center" cx="12" cy="12" r="3"></circle>
            <rect id="Bar-1" x="2" y="11" width="20" height="2" rx="1"></rect>
            <rect id="Bar-2" x="11" y="2" width="2" height="20" rx="1"></rect>
            <rect id="Bar-3" transform="translate(12.000000, 12.000000) rotate(45.000000) translate(-12.000000, -12.000000) " x="2" y="11" width="20" height="2" rx="1"></rect>
            <rect id="Bar-4" transform="translate(12.000000, 12.000000) rotate(-45.000000) translate(-12.000000, -12.000000) " x="2" y="11" width="20" height="2" rx="1"></rect>
        </g>
    </g>
</svg>
