<?xml version="1.0" encoding="UTF-8"?>
<svg width="24px" height="24px" viewBox="0 0 24 24" version="1.1" xmlns="http://www.w3.org/2000/svg">
    <title>MCP Icon</title>
    <g id="MCP-Icon" stroke="none" stroke-width="1" fill="none" fill-rule="evenodd">
        <circle id="Background" fill="#6563FF" cx="12" cy="12" r="12"/>
        <path d="M6,7 L18,7 C18.5522847,7 19,7.44771525 19,8 L19,16 C19,16.5522847 18.5522847,17 18,17 L6,17 C5.44771525,17 5,16.5522847 5,16 L5,8 C5,7.44771525 5.44771525,7 6,7 Z" id="Rectangle" stroke="#FFFFFF" stroke-width="1.5"/>
        <path d="M8,10 L16,10 C16.5522847,10 17,10.4477153 17,11 L17,13 C17,13.5522847 16.5522847,14 16,14 L8,14 C7.44771525,14 7,13.5522847 7,13 L7,11 C7,10.4477153 7.44771525,10 8,10 Z" id="Rectangle" stroke="#FFFFFF" stroke-width="1.5"/>
        <line x1="12" y1="7" x2="12" y2="17" id="Line" stroke="#FFFFFF" stroke-width="1.5" stroke-linecap="round"/>
    </g>
</svg>
